<mxfile host="app.diagrams.net" modified="2023-11-15T17:23:37.764Z" agent="Mozilla/5.0 (Windows NT 10.0; Win64; x64) AppleWebKit/537.36 (KHTML, like Gecko) Chrome/119.0.0.0 Safari/537.36" etag="GJzQ8C3V40f9PEiZSDLY" version="22.1.1" type="device">
  <diagram name="1 oldal" id="yY2PYms5juoL6YV4FgdP">
    <mxGraphModel dx="1366" dy="663" grid="1" gridSize="10" guides="1" tooltips="1" connect="1" arrows="1" fold="1" page="1" pageScale="1" pageWidth="827" pageHeight="1169" math="0" shadow="0">
      <root>
        <mxCell id="0" />
        <mxCell id="1" parent="0" />
        <mxCell id="0lsxmCBKLL6DGp91V7Py-6" style="rounded=0;orthogonalLoop=1;jettySize=auto;html=1;exitX=1;exitY=1;exitDx=0;exitDy=0;entryX=0.5;entryY=0;entryDx=0;entryDy=0;endArrow=none;endFill=0;" parent="1" source="0lsxmCBKLL6DGp91V7Py-2" target="0lsxmCBKLL6DGp91V7Py-5" edge="1">
          <mxGeometry relative="1" as="geometry" />
        </mxCell>
        <mxCell id="0lsxmCBKLL6DGp91V7Py-7" style="rounded=0;orthogonalLoop=1;jettySize=auto;html=1;exitX=0.5;exitY=1;exitDx=0;exitDy=0;entryX=0.5;entryY=0;entryDx=0;entryDy=0;startArrow=none;startFill=0;endArrow=none;endFill=0;" parent="1" source="0lsxmCBKLL6DGp91V7Py-2" target="0lsxmCBKLL6DGp91V7Py-4" edge="1">
          <mxGeometry relative="1" as="geometry" />
        </mxCell>
        <mxCell id="0lsxmCBKLL6DGp91V7Py-9" style="rounded=0;orthogonalLoop=1;jettySize=auto;html=1;exitX=0.5;exitY=1;exitDx=0;exitDy=0;entryX=0.5;entryY=0;entryDx=0;entryDy=0;endArrow=none;endFill=0;" parent="1" source="0lsxmCBKLL6DGp91V7Py-2" target="0lsxmCBKLL6DGp91V7Py-3" edge="1">
          <mxGeometry relative="1" as="geometry" />
        </mxCell>
        <mxCell id="0lsxmCBKLL6DGp91V7Py-10" style="rounded=0;orthogonalLoop=1;jettySize=auto;html=1;exitX=0;exitY=1;exitDx=0;exitDy=0;entryX=0.5;entryY=0;entryDx=0;entryDy=0;endArrow=none;endFill=0;" parent="1" source="0lsxmCBKLL6DGp91V7Py-2" target="0lsxmCBKLL6DGp91V7Py-8" edge="1">
          <mxGeometry relative="1" as="geometry" />
        </mxCell>
        <mxCell id="0lsxmCBKLL6DGp91V7Py-14" style="rounded=0;orthogonalLoop=1;jettySize=auto;html=1;exitX=0.5;exitY=1;exitDx=0;exitDy=0;entryX=0.5;entryY=0;entryDx=0;entryDy=0;endArrow=none;endFill=0;" parent="1" source="0lsxmCBKLL6DGp91V7Py-3" target="0lsxmCBKLL6DGp91V7Py-11" edge="1">
          <mxGeometry relative="1" as="geometry" />
        </mxCell>
        <mxCell id="0lsxmCBKLL6DGp91V7Py-3" value="Tipus" style="ellipse;whiteSpace=wrap;html=1;" parent="1" vertex="1">
          <mxGeometry x="100" y="835" width="120" height="60" as="geometry" />
        </mxCell>
        <mxCell id="0lsxmCBKLL6DGp91V7Py-15" style="rounded=0;orthogonalLoop=1;jettySize=auto;html=1;exitX=0.5;exitY=1;exitDx=0;exitDy=0;entryX=0.5;entryY=0;entryDx=0;entryDy=0;endArrow=none;endFill=0;" parent="1" source="0lsxmCBKLL6DGp91V7Py-4" target="0lsxmCBKLL6DGp91V7Py-12" edge="1">
          <mxGeometry relative="1" as="geometry" />
        </mxCell>
        <mxCell id="0lsxmCBKLL6DGp91V7Py-4" value="Ár" style="ellipse;whiteSpace=wrap;html=1;" parent="1" vertex="1">
          <mxGeometry x="240" y="835" width="120" height="60" as="geometry" />
        </mxCell>
        <mxCell id="0lsxmCBKLL6DGp91V7Py-16" style="rounded=0;orthogonalLoop=1;jettySize=auto;html=1;exitX=0.5;exitY=1;exitDx=0;exitDy=0;entryX=0.5;entryY=0;entryDx=0;entryDy=0;endArrow=none;endFill=0;" parent="1" source="0lsxmCBKLL6DGp91V7Py-5" target="0lsxmCBKLL6DGp91V7Py-13" edge="1">
          <mxGeometry relative="1" as="geometry" />
        </mxCell>
        <mxCell id="0lsxmCBKLL6DGp91V7Py-5" value="Név" style="ellipse;whiteSpace=wrap;html=1;" parent="1" vertex="1">
          <mxGeometry x="379" y="835" width="120" height="60" as="geometry" />
        </mxCell>
        <mxCell id="0lsxmCBKLL6DGp91V7Py-8" value="&lt;u&gt;AID&lt;/u&gt;" style="rhombus;whiteSpace=wrap;html=1;" parent="1" vertex="1">
          <mxGeometry y="825" width="80" height="80" as="geometry" />
        </mxCell>
        <mxCell id="0lsxmCBKLL6DGp91V7Py-11" value="" style="rounded=0;whiteSpace=wrap;html=1;" parent="1" vertex="1">
          <mxGeometry x="140" y="925" width="40" height="70" as="geometry" />
        </mxCell>
        <mxCell id="0lsxmCBKLL6DGp91V7Py-12" value="" style="rounded=0;whiteSpace=wrap;html=1;" parent="1" vertex="1">
          <mxGeometry x="280" y="925" width="40" height="70" as="geometry" />
        </mxCell>
        <mxCell id="0lsxmCBKLL6DGp91V7Py-13" value="" style="rounded=0;whiteSpace=wrap;html=1;" parent="1" vertex="1">
          <mxGeometry x="419" y="925" width="40" height="70" as="geometry" />
        </mxCell>
        <mxCell id="VFRHFJFRgfAjL8g4FC74-73" style="rounded=0;orthogonalLoop=1;jettySize=auto;html=1;exitX=0.5;exitY=0;exitDx=0;exitDy=0;entryX=0;entryY=0.5;entryDx=0;entryDy=0;endArrow=none;endFill=0;" edge="1" parent="1" source="0lsxmCBKLL6DGp91V7Py-17" target="VFRHFJFRgfAjL8g4FC74-68">
          <mxGeometry relative="1" as="geometry">
            <mxPoint x="1671.1764705882354" y="380" as="targetPoint" />
          </mxGeometry>
        </mxCell>
        <mxCell id="0lsxmCBKLL6DGp91V7Py-17" value="" style="ellipse;whiteSpace=wrap;html=1;" parent="1" vertex="1">
          <mxGeometry x="161" y="730" width="140" height="70" as="geometry" />
        </mxCell>
        <mxCell id="0lsxmCBKLL6DGp91V7Py-2" value="Alkatrész" style="ellipse;whiteSpace=wrap;html=1;" parent="1" vertex="1">
          <mxGeometry x="171" y="735" width="120" height="60" as="geometry" />
        </mxCell>
        <mxCell id="0lsxmCBKLL6DGp91V7Py-22" style="rounded=0;orthogonalLoop=1;jettySize=auto;html=1;exitX=1;exitY=1;exitDx=0;exitDy=0;entryX=0.5;entryY=0;entryDx=0;entryDy=0;endArrow=none;endFill=0;" parent="1" source="0lsxmCBKLL6DGp91V7Py-37" target="0lsxmCBKLL6DGp91V7Py-31" edge="1">
          <mxGeometry relative="1" as="geometry" />
        </mxCell>
        <mxCell id="0lsxmCBKLL6DGp91V7Py-23" style="rounded=0;orthogonalLoop=1;jettySize=auto;html=1;exitX=0.5;exitY=1;exitDx=0;exitDy=0;entryX=0.5;entryY=0;entryDx=0;entryDy=0;startArrow=none;startFill=0;endArrow=none;endFill=0;" parent="1" source="0lsxmCBKLL6DGp91V7Py-37" target="0lsxmCBKLL6DGp91V7Py-29" edge="1">
          <mxGeometry relative="1" as="geometry" />
        </mxCell>
        <mxCell id="0lsxmCBKLL6DGp91V7Py-24" style="rounded=0;orthogonalLoop=1;jettySize=auto;html=1;exitX=0.5;exitY=1;exitDx=0;exitDy=0;entryX=0.5;entryY=0;entryDx=0;entryDy=0;endArrow=none;endFill=0;" parent="1" source="0lsxmCBKLL6DGp91V7Py-37" target="0lsxmCBKLL6DGp91V7Py-27" edge="1">
          <mxGeometry relative="1" as="geometry" />
        </mxCell>
        <mxCell id="0lsxmCBKLL6DGp91V7Py-25" style="rounded=0;orthogonalLoop=1;jettySize=auto;html=1;exitX=0;exitY=1;exitDx=0;exitDy=0;entryX=0.5;entryY=0;entryDx=0;entryDy=0;endArrow=none;endFill=0;" parent="1" source="0lsxmCBKLL6DGp91V7Py-37" target="0lsxmCBKLL6DGp91V7Py-32" edge="1">
          <mxGeometry relative="1" as="geometry" />
        </mxCell>
        <mxCell id="0lsxmCBKLL6DGp91V7Py-26" style="rounded=0;orthogonalLoop=1;jettySize=auto;html=1;exitX=0.5;exitY=1;exitDx=0;exitDy=0;entryX=0.5;entryY=0;entryDx=0;entryDy=0;endArrow=none;endFill=0;" parent="1" source="0lsxmCBKLL6DGp91V7Py-27" target="0lsxmCBKLL6DGp91V7Py-33" edge="1">
          <mxGeometry relative="1" as="geometry" />
        </mxCell>
        <mxCell id="0lsxmCBKLL6DGp91V7Py-27" value="Név" style="ellipse;whiteSpace=wrap;html=1;" parent="1" vertex="1">
          <mxGeometry x="971" y="835" width="120" height="60" as="geometry" />
        </mxCell>
        <mxCell id="0lsxmCBKLL6DGp91V7Py-28" style="rounded=0;orthogonalLoop=1;jettySize=auto;html=1;exitX=0.5;exitY=1;exitDx=0;exitDy=0;entryX=0.5;entryY=0;entryDx=0;entryDy=0;endArrow=none;endFill=0;" parent="1" source="0lsxmCBKLL6DGp91V7Py-29" target="0lsxmCBKLL6DGp91V7Py-34" edge="1">
          <mxGeometry relative="1" as="geometry" />
        </mxCell>
        <mxCell id="0lsxmCBKLL6DGp91V7Py-29" value="Ár" style="ellipse;whiteSpace=wrap;html=1;" parent="1" vertex="1">
          <mxGeometry x="1111" y="835" width="120" height="60" as="geometry" />
        </mxCell>
        <mxCell id="0lsxmCBKLL6DGp91V7Py-30" style="rounded=0;orthogonalLoop=1;jettySize=auto;html=1;exitX=0.5;exitY=1;exitDx=0;exitDy=0;entryX=0.5;entryY=0;entryDx=0;entryDy=0;endArrow=none;endFill=0;" parent="1" source="0lsxmCBKLL6DGp91V7Py-31" target="0lsxmCBKLL6DGp91V7Py-35" edge="1">
          <mxGeometry relative="1" as="geometry" />
        </mxCell>
        <mxCell id="0lsxmCBKLL6DGp91V7Py-31" value="Darab" style="ellipse;whiteSpace=wrap;html=1;" parent="1" vertex="1">
          <mxGeometry x="1251" y="835" width="120" height="60" as="geometry" />
        </mxCell>
        <mxCell id="0lsxmCBKLL6DGp91V7Py-32" value="&lt;u&gt;SZID&lt;/u&gt;" style="rhombus;whiteSpace=wrap;html=1;" parent="1" vertex="1">
          <mxGeometry x="871" y="825" width="80" height="80" as="geometry" />
        </mxCell>
        <mxCell id="0lsxmCBKLL6DGp91V7Py-33" value="" style="rounded=0;whiteSpace=wrap;html=1;" parent="1" vertex="1">
          <mxGeometry x="1011" y="925" width="40" height="70" as="geometry" />
        </mxCell>
        <mxCell id="0lsxmCBKLL6DGp91V7Py-34" value="" style="rounded=0;whiteSpace=wrap;html=1;" parent="1" vertex="1">
          <mxGeometry x="1151" y="925" width="40" height="70" as="geometry" />
        </mxCell>
        <mxCell id="0lsxmCBKLL6DGp91V7Py-35" value="" style="rounded=0;whiteSpace=wrap;html=1;" parent="1" vertex="1">
          <mxGeometry x="1291" y="925" width="40" height="70" as="geometry" />
        </mxCell>
        <mxCell id="0lsxmCBKLL6DGp91V7Py-36" value="" style="ellipse;whiteSpace=wrap;html=1;" parent="1" vertex="1">
          <mxGeometry x="1031" y="730" width="140" height="70" as="geometry" />
        </mxCell>
        <mxCell id="0lsxmCBKLL6DGp91V7Py-37" value="Számítógép" style="ellipse;whiteSpace=wrap;html=1;" parent="1" vertex="1">
          <mxGeometry x="1041" y="735" width="120" height="60" as="geometry" />
        </mxCell>
        <mxCell id="0lsxmCBKLL6DGp91V7Py-38" style="rounded=0;orthogonalLoop=1;jettySize=auto;html=1;exitX=1;exitY=1;exitDx=0;exitDy=0;entryX=0.5;entryY=0;entryDx=0;entryDy=0;endArrow=none;endFill=0;" parent="1" source="0lsxmCBKLL6DGp91V7Py-53" target="0lsxmCBKLL6DGp91V7Py-47" edge="1">
          <mxGeometry relative="1" as="geometry" />
        </mxCell>
        <mxCell id="0lsxmCBKLL6DGp91V7Py-39" style="rounded=0;orthogonalLoop=1;jettySize=auto;html=1;exitX=0.5;exitY=1;exitDx=0;exitDy=0;entryX=0.5;entryY=0;entryDx=0;entryDy=0;startArrow=none;startFill=0;endArrow=none;endFill=0;" parent="1" source="0lsxmCBKLL6DGp91V7Py-53" target="0lsxmCBKLL6DGp91V7Py-45" edge="1">
          <mxGeometry relative="1" as="geometry" />
        </mxCell>
        <mxCell id="0lsxmCBKLL6DGp91V7Py-40" style="rounded=0;orthogonalLoop=1;jettySize=auto;html=1;exitX=0.5;exitY=1;exitDx=0;exitDy=0;entryX=0.5;entryY=0;entryDx=0;entryDy=0;endArrow=none;endFill=0;" parent="1" source="0lsxmCBKLL6DGp91V7Py-53" target="0lsxmCBKLL6DGp91V7Py-43" edge="1">
          <mxGeometry relative="1" as="geometry" />
        </mxCell>
        <mxCell id="0lsxmCBKLL6DGp91V7Py-41" style="rounded=0;orthogonalLoop=1;jettySize=auto;html=1;exitX=0;exitY=1;exitDx=0;exitDy=0;entryX=0.5;entryY=0;entryDx=0;entryDy=0;endArrow=none;endFill=0;" parent="1" source="0lsxmCBKLL6DGp91V7Py-53" target="0lsxmCBKLL6DGp91V7Py-48" edge="1">
          <mxGeometry relative="1" as="geometry" />
        </mxCell>
        <mxCell id="0lsxmCBKLL6DGp91V7Py-42" style="rounded=0;orthogonalLoop=1;jettySize=auto;html=1;exitX=0.5;exitY=1;exitDx=0;exitDy=0;entryX=0.5;entryY=0;entryDx=0;entryDy=0;endArrow=none;endFill=0;" parent="1" source="0lsxmCBKLL6DGp91V7Py-43" target="0lsxmCBKLL6DGp91V7Py-49" edge="1">
          <mxGeometry relative="1" as="geometry" />
        </mxCell>
        <mxCell id="0lsxmCBKLL6DGp91V7Py-43" value="Bank" style="ellipse;whiteSpace=wrap;html=1;" parent="1" vertex="1">
          <mxGeometry x="3331" y="835" width="120" height="60" as="geometry" />
        </mxCell>
        <mxCell id="0lsxmCBKLL6DGp91V7Py-44" style="rounded=0;orthogonalLoop=1;jettySize=auto;html=1;exitX=0.5;exitY=1;exitDx=0;exitDy=0;entryX=0.5;entryY=0;entryDx=0;entryDy=0;endArrow=none;endFill=0;" parent="1" source="0lsxmCBKLL6DGp91V7Py-45" target="0lsxmCBKLL6DGp91V7Py-50" edge="1">
          <mxGeometry relative="1" as="geometry" />
        </mxCell>
        <mxCell id="0lsxmCBKLL6DGp91V7Py-45" value="Kártyaszám" style="ellipse;whiteSpace=wrap;html=1;" parent="1" vertex="1">
          <mxGeometry x="3471" y="835" width="120" height="60" as="geometry" />
        </mxCell>
        <mxCell id="0lsxmCBKLL6DGp91V7Py-46" style="rounded=0;orthogonalLoop=1;jettySize=auto;html=1;exitX=0.5;exitY=1;exitDx=0;exitDy=0;entryX=0.5;entryY=0;entryDx=0;entryDy=0;endArrow=none;endFill=0;" parent="1" source="0lsxmCBKLL6DGp91V7Py-47" target="0lsxmCBKLL6DGp91V7Py-51" edge="1">
          <mxGeometry relative="1" as="geometry" />
        </mxCell>
        <mxCell id="0lsxmCBKLL6DGp91V7Py-47" value="Lejárati dátum" style="ellipse;whiteSpace=wrap;html=1;" parent="1" vertex="1">
          <mxGeometry x="3611" y="835" width="120" height="60" as="geometry" />
        </mxCell>
        <mxCell id="0lsxmCBKLL6DGp91V7Py-48" value="&lt;u&gt;BID&lt;/u&gt;" style="rhombus;whiteSpace=wrap;html=1;" parent="1" vertex="1">
          <mxGeometry x="3231" y="825" width="80" height="80" as="geometry" />
        </mxCell>
        <mxCell id="0lsxmCBKLL6DGp91V7Py-49" value="" style="rounded=0;whiteSpace=wrap;html=1;" parent="1" vertex="1">
          <mxGeometry x="3371" y="925" width="40" height="70" as="geometry" />
        </mxCell>
        <mxCell id="0lsxmCBKLL6DGp91V7Py-50" value="" style="rounded=0;whiteSpace=wrap;html=1;" parent="1" vertex="1">
          <mxGeometry x="3511" y="925" width="40" height="70" as="geometry" />
        </mxCell>
        <mxCell id="0lsxmCBKLL6DGp91V7Py-51" value="" style="rounded=0;whiteSpace=wrap;html=1;" parent="1" vertex="1">
          <mxGeometry x="3651" y="925" width="40" height="70" as="geometry" />
        </mxCell>
        <mxCell id="VFRHFJFRgfAjL8g4FC74-76" style="rounded=0;orthogonalLoop=1;jettySize=auto;html=1;exitX=0.5;exitY=0;exitDx=0;exitDy=0;entryX=1;entryY=0.5;entryDx=0;entryDy=0;endArrow=none;endFill=0;" edge="1" parent="1" source="0lsxmCBKLL6DGp91V7Py-52" target="VFRHFJFRgfAjL8g4FC74-68">
          <mxGeometry relative="1" as="geometry" />
        </mxCell>
        <mxCell id="0lsxmCBKLL6DGp91V7Py-52" value="" style="ellipse;whiteSpace=wrap;html=1;" parent="1" vertex="1">
          <mxGeometry x="3391" y="730" width="140" height="70" as="geometry" />
        </mxCell>
        <mxCell id="0lsxmCBKLL6DGp91V7Py-53" value="Bankkártya" style="ellipse;whiteSpace=wrap;html=1;" parent="1" vertex="1">
          <mxGeometry x="3401" y="735" width="120" height="60" as="geometry" />
        </mxCell>
        <mxCell id="0lsxmCBKLL6DGp91V7Py-54" style="rounded=0;orthogonalLoop=1;jettySize=auto;html=1;exitX=1;exitY=1;exitDx=0;exitDy=0;entryX=0.5;entryY=0;entryDx=0;entryDy=0;endArrow=none;endFill=0;" parent="1" source="0lsxmCBKLL6DGp91V7Py-69" target="0lsxmCBKLL6DGp91V7Py-63" edge="1">
          <mxGeometry relative="1" as="geometry" />
        </mxCell>
        <mxCell id="0lsxmCBKLL6DGp91V7Py-55" style="rounded=0;orthogonalLoop=1;jettySize=auto;html=1;exitX=0.5;exitY=1;exitDx=0;exitDy=0;entryX=0.5;entryY=0;entryDx=0;entryDy=0;startArrow=none;startFill=0;endArrow=none;endFill=0;" parent="1" source="0lsxmCBKLL6DGp91V7Py-69" target="0lsxmCBKLL6DGp91V7Py-61" edge="1">
          <mxGeometry relative="1" as="geometry" />
        </mxCell>
        <mxCell id="0lsxmCBKLL6DGp91V7Py-56" style="rounded=0;orthogonalLoop=1;jettySize=auto;html=1;exitX=0.5;exitY=1;exitDx=0;exitDy=0;entryX=0.5;entryY=0;entryDx=0;entryDy=0;endArrow=none;endFill=0;" parent="1" source="0lsxmCBKLL6DGp91V7Py-69" target="0lsxmCBKLL6DGp91V7Py-59" edge="1">
          <mxGeometry relative="1" as="geometry" />
        </mxCell>
        <mxCell id="0lsxmCBKLL6DGp91V7Py-57" style="rounded=0;orthogonalLoop=1;jettySize=auto;html=1;exitX=0;exitY=1;exitDx=0;exitDy=0;entryX=0.5;entryY=0;entryDx=0;entryDy=0;endArrow=none;endFill=0;" parent="1" source="0lsxmCBKLL6DGp91V7Py-69" target="0lsxmCBKLL6DGp91V7Py-64" edge="1">
          <mxGeometry relative="1" as="geometry" />
        </mxCell>
        <mxCell id="0lsxmCBKLL6DGp91V7Py-58" style="rounded=0;orthogonalLoop=1;jettySize=auto;html=1;exitX=0.5;exitY=1;exitDx=0;exitDy=0;entryX=0.5;entryY=0;entryDx=0;entryDy=0;endArrow=none;endFill=0;" parent="1" source="0lsxmCBKLL6DGp91V7Py-59" target="0lsxmCBKLL6DGp91V7Py-65" edge="1">
          <mxGeometry relative="1" as="geometry" />
        </mxCell>
        <mxCell id="0lsxmCBKLL6DGp91V7Py-59" value="Felhasználónév" style="ellipse;whiteSpace=wrap;html=1;" parent="1" vertex="1">
          <mxGeometry x="1831" y="835" width="120" height="60" as="geometry" />
        </mxCell>
        <mxCell id="0lsxmCBKLL6DGp91V7Py-60" style="rounded=0;orthogonalLoop=1;jettySize=auto;html=1;exitX=0.5;exitY=1;exitDx=0;exitDy=0;entryX=0.5;entryY=0;entryDx=0;entryDy=0;endArrow=none;endFill=0;" parent="1" source="0lsxmCBKLL6DGp91V7Py-61" target="0lsxmCBKLL6DGp91V7Py-66" edge="1">
          <mxGeometry relative="1" as="geometry" />
        </mxCell>
        <mxCell id="0lsxmCBKLL6DGp91V7Py-61" value="Jelszó" style="ellipse;whiteSpace=wrap;html=1;" parent="1" vertex="1">
          <mxGeometry x="1971" y="835" width="120" height="60" as="geometry" />
        </mxCell>
        <mxCell id="0lsxmCBKLL6DGp91V7Py-62" style="rounded=0;orthogonalLoop=1;jettySize=auto;html=1;exitX=0.5;exitY=1;exitDx=0;exitDy=0;entryX=0.5;entryY=0;entryDx=0;entryDy=0;endArrow=none;endFill=0;" parent="1" source="0lsxmCBKLL6DGp91V7Py-63" target="0lsxmCBKLL6DGp91V7Py-67" edge="1">
          <mxGeometry relative="1" as="geometry" />
        </mxCell>
        <mxCell id="0lsxmCBKLL6DGp91V7Py-63" value="Kedvezmény" style="ellipse;whiteSpace=wrap;html=1;" parent="1" vertex="1">
          <mxGeometry x="2111" y="835" width="120" height="60" as="geometry" />
        </mxCell>
        <mxCell id="0lsxmCBKLL6DGp91V7Py-64" value="&lt;u&gt;FID&lt;/u&gt;" style="rhombus;whiteSpace=wrap;html=1;" parent="1" vertex="1">
          <mxGeometry x="1731" y="825" width="80" height="80" as="geometry" />
        </mxCell>
        <mxCell id="0lsxmCBKLL6DGp91V7Py-65" value="" style="rounded=0;whiteSpace=wrap;html=1;" parent="1" vertex="1">
          <mxGeometry x="1871" y="925" width="40" height="70" as="geometry" />
        </mxCell>
        <mxCell id="0lsxmCBKLL6DGp91V7Py-66" value="" style="rounded=0;whiteSpace=wrap;html=1;" parent="1" vertex="1">
          <mxGeometry x="2011" y="925" width="40" height="70" as="geometry" />
        </mxCell>
        <mxCell id="0lsxmCBKLL6DGp91V7Py-67" value="" style="rounded=0;whiteSpace=wrap;html=1;" parent="1" vertex="1">
          <mxGeometry x="2151" y="925" width="40" height="70" as="geometry" />
        </mxCell>
        <mxCell id="0lsxmCBKLL6DGp91V7Py-68" value="" style="ellipse;whiteSpace=wrap;html=1;" parent="1" vertex="1">
          <mxGeometry x="1891" y="730" width="140" height="70" as="geometry" />
        </mxCell>
        <mxCell id="0lsxmCBKLL6DGp91V7Py-69" value="Fiók" style="ellipse;whiteSpace=wrap;html=1;" parent="1" vertex="1">
          <mxGeometry x="1901" y="735" width="120" height="60" as="geometry" />
        </mxCell>
        <mxCell id="0lsxmCBKLL6DGp91V7Py-71" style="rounded=0;orthogonalLoop=1;jettySize=auto;html=1;exitX=0.5;exitY=1;exitDx=0;exitDy=0;entryX=0.5;entryY=0;entryDx=0;entryDy=0;startArrow=none;startFill=0;endArrow=none;endFill=0;" parent="1" source="0lsxmCBKLL6DGp91V7Py-85" target="0lsxmCBKLL6DGp91V7Py-77" edge="1">
          <mxGeometry relative="1" as="geometry" />
        </mxCell>
        <mxCell id="0lsxmCBKLL6DGp91V7Py-72" style="rounded=0;orthogonalLoop=1;jettySize=auto;html=1;exitX=0.5;exitY=1;exitDx=0;exitDy=0;entryX=0.5;entryY=0;entryDx=0;entryDy=0;endArrow=none;endFill=0;" parent="1" source="0lsxmCBKLL6DGp91V7Py-85" target="0lsxmCBKLL6DGp91V7Py-75" edge="1">
          <mxGeometry relative="1" as="geometry" />
        </mxCell>
        <mxCell id="0lsxmCBKLL6DGp91V7Py-73" style="rounded=0;orthogonalLoop=1;jettySize=auto;html=1;exitX=0;exitY=1;exitDx=0;exitDy=0;entryX=0.5;entryY=0;entryDx=0;entryDy=0;endArrow=none;endFill=0;" parent="1" source="0lsxmCBKLL6DGp91V7Py-85" target="0lsxmCBKLL6DGp91V7Py-80" edge="1">
          <mxGeometry relative="1" as="geometry" />
        </mxCell>
        <mxCell id="0lsxmCBKLL6DGp91V7Py-74" style="rounded=0;orthogonalLoop=1;jettySize=auto;html=1;exitX=0.5;exitY=1;exitDx=0;exitDy=0;entryX=0.5;entryY=0;entryDx=0;entryDy=0;endArrow=none;endFill=0;" parent="1" source="0lsxmCBKLL6DGp91V7Py-75" target="0lsxmCBKLL6DGp91V7Py-81" edge="1">
          <mxGeometry relative="1" as="geometry" />
        </mxCell>
        <mxCell id="0lsxmCBKLL6DGp91V7Py-75" value="Név" style="ellipse;whiteSpace=wrap;html=1;" parent="1" vertex="1">
          <mxGeometry x="2351" y="835" width="120" height="60" as="geometry" />
        </mxCell>
        <mxCell id="0lsxmCBKLL6DGp91V7Py-90" style="rounded=0;orthogonalLoop=1;jettySize=auto;html=1;exitX=0.5;exitY=1;exitDx=0;exitDy=0;endArrow=none;endFill=0;" parent="1" source="0lsxmCBKLL6DGp91V7Py-77" target="0lsxmCBKLL6DGp91V7Py-87" edge="1">
          <mxGeometry relative="1" as="geometry" />
        </mxCell>
        <mxCell id="0lsxmCBKLL6DGp91V7Py-91" style="rounded=0;orthogonalLoop=1;jettySize=auto;html=1;exitX=0.5;exitY=1;exitDx=0;exitDy=0;entryX=0;entryY=0;entryDx=0;entryDy=0;endArrow=none;endFill=0;" parent="1" source="0lsxmCBKLL6DGp91V7Py-77" target="0lsxmCBKLL6DGp91V7Py-88" edge="1">
          <mxGeometry relative="1" as="geometry" />
        </mxCell>
        <mxCell id="0lsxmCBKLL6DGp91V7Py-92" style="rounded=0;orthogonalLoop=1;jettySize=auto;html=1;exitX=0.5;exitY=1;exitDx=0;exitDy=0;entryX=1;entryY=0;entryDx=0;entryDy=0;endArrow=none;endFill=0;" parent="1" source="0lsxmCBKLL6DGp91V7Py-77" target="0lsxmCBKLL6DGp91V7Py-86" edge="1">
          <mxGeometry relative="1" as="geometry" />
        </mxCell>
        <mxCell id="0lsxmCBKLL6DGp91V7Py-77" value="Cím" style="ellipse;whiteSpace=wrap;html=1;" parent="1" vertex="1">
          <mxGeometry x="2491" y="835" width="120" height="60" as="geometry" />
        </mxCell>
        <mxCell id="0lsxmCBKLL6DGp91V7Py-80" value="&lt;u&gt;VID&lt;/u&gt;" style="rhombus;whiteSpace=wrap;html=1;" parent="1" vertex="1">
          <mxGeometry x="2251" y="825" width="80" height="80" as="geometry" />
        </mxCell>
        <mxCell id="0lsxmCBKLL6DGp91V7Py-81" value="" style="rounded=0;whiteSpace=wrap;html=1;" parent="1" vertex="1">
          <mxGeometry x="2391" y="925" width="40" height="70" as="geometry" />
        </mxCell>
        <mxCell id="0lsxmCBKLL6DGp91V7Py-83" value="" style="rounded=0;whiteSpace=wrap;html=1;" parent="1" vertex="1">
          <mxGeometry x="2681" y="925" width="40" height="70" as="geometry" />
        </mxCell>
        <mxCell id="0lsxmCBKLL6DGp91V7Py-95" style="rounded=0;orthogonalLoop=1;jettySize=auto;html=1;exitX=1;exitY=1;exitDx=0;exitDy=0;entryX=0.5;entryY=0;entryDx=0;entryDy=0;endArrow=none;endFill=0;" parent="1" source="0lsxmCBKLL6DGp91V7Py-84" target="0lsxmCBKLL6DGp91V7Py-93" edge="1">
          <mxGeometry relative="1" as="geometry" />
        </mxCell>
        <mxCell id="VFRHFJFRgfAjL8g4FC74-34" style="rounded=0;orthogonalLoop=1;jettySize=auto;html=1;exitX=1;exitY=0.5;exitDx=0;exitDy=0;entryX=0.5;entryY=0;entryDx=0;entryDy=0;endArrow=none;endFill=0;" edge="1" parent="1" source="0lsxmCBKLL6DGp91V7Py-84" target="VFRHFJFRgfAjL8g4FC74-33">
          <mxGeometry relative="1" as="geometry" />
        </mxCell>
        <mxCell id="VFRHFJFRgfAjL8g4FC74-74" style="rounded=0;orthogonalLoop=1;jettySize=auto;html=1;exitX=0.5;exitY=0;exitDx=0;exitDy=0;entryX=1;entryY=1;entryDx=0;entryDy=0;endArrow=none;endFill=0;" edge="1" parent="1" source="0lsxmCBKLL6DGp91V7Py-84" target="VFRHFJFRgfAjL8g4FC74-68">
          <mxGeometry relative="1" as="geometry" />
        </mxCell>
        <mxCell id="0lsxmCBKLL6DGp91V7Py-84" value="" style="ellipse;whiteSpace=wrap;html=1;" parent="1" vertex="1">
          <mxGeometry x="2411" y="730" width="140" height="70" as="geometry" />
        </mxCell>
        <mxCell id="0lsxmCBKLL6DGp91V7Py-85" value="Vásárló" style="ellipse;whiteSpace=wrap;html=1;" parent="1" vertex="1">
          <mxGeometry x="2421" y="735" width="120" height="60" as="geometry" />
        </mxCell>
        <mxCell id="0lsxmCBKLL6DGp91V7Py-86" value="Város" style="ellipse;whiteSpace=wrap;html=1;" parent="1" vertex="1">
          <mxGeometry x="2361" y="1025" width="120" height="60" as="geometry" />
        </mxCell>
        <mxCell id="0lsxmCBKLL6DGp91V7Py-87" value="Irányítószám" style="ellipse;whiteSpace=wrap;html=1;" parent="1" vertex="1">
          <mxGeometry x="2491" y="1025" width="120" height="60" as="geometry" />
        </mxCell>
        <mxCell id="0lsxmCBKLL6DGp91V7Py-88" value="Utca, házszám" style="ellipse;whiteSpace=wrap;html=1;" parent="1" vertex="1">
          <mxGeometry x="2621" y="1025" width="120" height="60" as="geometry" />
        </mxCell>
        <mxCell id="0lsxmCBKLL6DGp91V7Py-96" style="rounded=0;orthogonalLoop=1;jettySize=auto;html=1;exitX=0.5;exitY=1;exitDx=0;exitDy=0;entryX=0.5;entryY=0;entryDx=0;entryDy=0;endArrow=none;endFill=0;" parent="1" source="0lsxmCBKLL6DGp91V7Py-93" target="0lsxmCBKLL6DGp91V7Py-83" edge="1">
          <mxGeometry relative="1" as="geometry" />
        </mxCell>
        <mxCell id="0lsxmCBKLL6DGp91V7Py-93" value="" style="ellipse;whiteSpace=wrap;html=1;" parent="1" vertex="1">
          <mxGeometry x="2631" y="830" width="140" height="70" as="geometry" />
        </mxCell>
        <mxCell id="0lsxmCBKLL6DGp91V7Py-94" value="Vásárló" style="ellipse;whiteSpace=wrap;html=1;" parent="1" vertex="1">
          <mxGeometry x="2641" y="835" width="120" height="60" as="geometry" />
        </mxCell>
        <mxCell id="VFRHFJFRgfAjL8g4FC74-3" style="rounded=0;orthogonalLoop=1;jettySize=auto;html=1;exitX=0.5;exitY=1;exitDx=0;exitDy=0;entryX=0.5;entryY=0;entryDx=0;entryDy=0;endArrow=none;endFill=0;" edge="1" parent="1" source="VFRHFJFRgfAjL8g4FC74-16" target="VFRHFJFRgfAjL8g4FC74-6">
          <mxGeometry relative="1" as="geometry" />
        </mxCell>
        <mxCell id="VFRHFJFRgfAjL8g4FC74-5" style="rounded=0;orthogonalLoop=1;jettySize=auto;html=1;exitX=0.5;exitY=1;exitDx=0;exitDy=0;entryX=0.5;entryY=0;entryDx=0;entryDy=0;endArrow=none;endFill=0;" edge="1" parent="1" source="VFRHFJFRgfAjL8g4FC74-6" target="VFRHFJFRgfAjL8g4FC74-12">
          <mxGeometry relative="1" as="geometry" />
        </mxCell>
        <mxCell id="VFRHFJFRgfAjL8g4FC74-6" value="Darab" style="ellipse;whiteSpace=wrap;html=1;" vertex="1" parent="1">
          <mxGeometry x="631" y="835" width="120" height="60" as="geometry" />
        </mxCell>
        <mxCell id="VFRHFJFRgfAjL8g4FC74-12" value="" style="rounded=0;whiteSpace=wrap;html=1;" vertex="1" parent="1">
          <mxGeometry x="671" y="925" width="40" height="70" as="geometry" />
        </mxCell>
        <mxCell id="VFRHFJFRgfAjL8g4FC74-72" style="rounded=0;orthogonalLoop=1;jettySize=auto;html=1;exitX=0.5;exitY=0;exitDx=0;exitDy=0;entryX=0;entryY=1;entryDx=0;entryDy=0;endArrow=none;endFill=0;" edge="1" parent="1" source="VFRHFJFRgfAjL8g4FC74-15" target="VFRHFJFRgfAjL8g4FC74-68">
          <mxGeometry relative="1" as="geometry" />
        </mxCell>
        <mxCell id="VFRHFJFRgfAjL8g4FC74-15" value="" style="ellipse;whiteSpace=wrap;html=1;" vertex="1" parent="1">
          <mxGeometry x="621" y="730" width="140" height="70" as="geometry" />
        </mxCell>
        <mxCell id="VFRHFJFRgfAjL8g4FC74-16" value="Összeszerelés" style="ellipse;whiteSpace=wrap;html=1;" vertex="1" parent="1">
          <mxGeometry x="631" y="735" width="120" height="60" as="geometry" />
        </mxCell>
        <mxCell id="VFRHFJFRgfAjL8g4FC74-17" style="rounded=0;orthogonalLoop=1;jettySize=auto;html=1;exitX=0.5;exitY=1;exitDx=0;exitDy=0;entryX=0.5;entryY=0;entryDx=0;entryDy=0;endArrow=none;endFill=0;" edge="1" parent="1" source="VFRHFJFRgfAjL8g4FC74-24" target="VFRHFJFRgfAjL8g4FC74-20">
          <mxGeometry relative="1" as="geometry" />
        </mxCell>
        <mxCell id="VFRHFJFRgfAjL8g4FC74-19" style="rounded=0;orthogonalLoop=1;jettySize=auto;html=1;exitX=0.5;exitY=1;exitDx=0;exitDy=0;entryX=0.5;entryY=0;entryDx=0;entryDy=0;endArrow=none;endFill=0;" edge="1" parent="1" source="VFRHFJFRgfAjL8g4FC74-20" target="VFRHFJFRgfAjL8g4FC74-22">
          <mxGeometry relative="1" as="geometry" />
        </mxCell>
        <mxCell id="VFRHFJFRgfAjL8g4FC74-20" value="Dátum" style="ellipse;whiteSpace=wrap;html=1;" vertex="1" parent="1">
          <mxGeometry x="1492" y="835" width="120" height="60" as="geometry" />
        </mxCell>
        <mxCell id="VFRHFJFRgfAjL8g4FC74-22" value="" style="rounded=0;whiteSpace=wrap;html=1;" vertex="1" parent="1">
          <mxGeometry x="1532" y="925" width="40" height="70" as="geometry" />
        </mxCell>
        <mxCell id="VFRHFJFRgfAjL8g4FC74-70" style="rounded=0;orthogonalLoop=1;jettySize=auto;html=1;exitX=0.5;exitY=0;exitDx=0;exitDy=0;entryX=0.5;entryY=1;entryDx=0;entryDy=0;endArrow=none;endFill=0;" edge="1" parent="1" source="VFRHFJFRgfAjL8g4FC74-23" target="VFRHFJFRgfAjL8g4FC74-68">
          <mxGeometry relative="1" as="geometry" />
        </mxCell>
        <mxCell id="VFRHFJFRgfAjL8g4FC74-23" value="" style="ellipse;whiteSpace=wrap;html=1;" vertex="1" parent="1">
          <mxGeometry x="1482" y="730" width="140" height="70" as="geometry" />
        </mxCell>
        <mxCell id="VFRHFJFRgfAjL8g4FC74-24" value="Vásárlás" style="ellipse;whiteSpace=wrap;html=1;" vertex="1" parent="1">
          <mxGeometry x="1492" y="735" width="120" height="60" as="geometry" />
        </mxCell>
        <mxCell id="VFRHFJFRgfAjL8g4FC74-25" style="rounded=0;orthogonalLoop=1;jettySize=auto;html=1;exitX=0.5;exitY=1;exitDx=0;exitDy=0;entryX=0.5;entryY=0;entryDx=0;entryDy=0;endArrow=none;endFill=0;" edge="1" parent="1" source="VFRHFJFRgfAjL8g4FC74-32" target="VFRHFJFRgfAjL8g4FC74-28">
          <mxGeometry relative="1" as="geometry" />
        </mxCell>
        <mxCell id="VFRHFJFRgfAjL8g4FC74-27" style="rounded=0;orthogonalLoop=1;jettySize=auto;html=1;exitX=0.5;exitY=1;exitDx=0;exitDy=0;entryX=0.5;entryY=0;entryDx=0;entryDy=0;endArrow=none;endFill=0;" edge="1" parent="1" source="VFRHFJFRgfAjL8g4FC74-28" target="VFRHFJFRgfAjL8g4FC74-30">
          <mxGeometry relative="1" as="geometry" />
        </mxCell>
        <mxCell id="VFRHFJFRgfAjL8g4FC74-28" value="Jóváhagyás" style="ellipse;whiteSpace=wrap;html=1;" vertex="1" parent="1">
          <mxGeometry x="2991" y="834.5" width="120" height="60" as="geometry" />
        </mxCell>
        <mxCell id="VFRHFJFRgfAjL8g4FC74-30" value="" style="rounded=0;whiteSpace=wrap;html=1;" vertex="1" parent="1">
          <mxGeometry x="3031" y="925" width="40" height="70" as="geometry" />
        </mxCell>
        <mxCell id="VFRHFJFRgfAjL8g4FC74-75" style="rounded=0;orthogonalLoop=1;jettySize=auto;html=1;exitX=0.5;exitY=0;exitDx=0;exitDy=0;entryX=1;entryY=1;entryDx=0;entryDy=0;endArrow=none;endFill=0;" edge="1" parent="1" source="VFRHFJFRgfAjL8g4FC74-31" target="VFRHFJFRgfAjL8g4FC74-68">
          <mxGeometry relative="1" as="geometry" />
        </mxCell>
        <mxCell id="VFRHFJFRgfAjL8g4FC74-31" value="" style="ellipse;whiteSpace=wrap;html=1;" vertex="1" parent="1">
          <mxGeometry x="2981" y="730" width="140" height="70" as="geometry" />
        </mxCell>
        <mxCell id="VFRHFJFRgfAjL8g4FC74-32" value="Fizetés" style="ellipse;whiteSpace=wrap;html=1;" vertex="1" parent="1">
          <mxGeometry x="2991" y="735" width="120" height="60" as="geometry" />
        </mxCell>
        <mxCell id="VFRHFJFRgfAjL8g4FC74-58" style="edgeStyle=orthogonalEdgeStyle;rounded=0;orthogonalLoop=1;jettySize=auto;html=1;exitX=0.5;exitY=1;exitDx=0;exitDy=0;entryX=1;entryY=1;entryDx=0;entryDy=0;dashed=1;" edge="1" parent="1" source="VFRHFJFRgfAjL8g4FC74-33" target="0lsxmCBKLL6DGp91V7Py-64">
          <mxGeometry relative="1" as="geometry">
            <Array as="points">
              <mxPoint x="2831" y="1115" />
              <mxPoint x="1791" y="1115" />
            </Array>
          </mxGeometry>
        </mxCell>
        <mxCell id="VFRHFJFRgfAjL8g4FC74-33" value="Fiók" style="rhombus;whiteSpace=wrap;html=1;" vertex="1" parent="1">
          <mxGeometry x="2791" y="825" width="80" height="80" as="geometry" />
        </mxCell>
        <mxCell id="VFRHFJFRgfAjL8g4FC74-35" value="" style="endArrow=none;dashed=1;html=1;rounded=0;entryX=0.941;entryY=0.559;entryDx=0;entryDy=0;entryPerimeter=0;exitX=0.083;exitY=0.569;exitDx=0;exitDy=0;exitPerimeter=0;" edge="1" parent="1" source="VFRHFJFRgfAjL8g4FC74-33" target="VFRHFJFRgfAjL8g4FC74-33">
          <mxGeometry width="50" height="50" relative="1" as="geometry">
            <mxPoint x="2801" y="870" as="sourcePoint" />
            <mxPoint x="2881" y="835" as="targetPoint" />
          </mxGeometry>
        </mxCell>
        <mxCell id="VFRHFJFRgfAjL8g4FC74-43" style="edgeStyle=orthogonalEdgeStyle;rounded=0;orthogonalLoop=1;jettySize=auto;html=1;exitX=0.5;exitY=1;exitDx=0;exitDy=0;entryX=0.5;entryY=1;entryDx=0;entryDy=0;dashed=1;" edge="1" parent="1" source="VFRHFJFRgfAjL8g4FC74-39" target="0lsxmCBKLL6DGp91V7Py-8">
          <mxGeometry relative="1" as="geometry">
            <Array as="points">
              <mxPoint x="571" y="1115" />
              <mxPoint x="40" y="1115" />
            </Array>
          </mxGeometry>
        </mxCell>
        <mxCell id="VFRHFJFRgfAjL8g4FC74-44" style="rounded=0;orthogonalLoop=1;jettySize=auto;html=1;exitX=0.5;exitY=0;exitDx=0;exitDy=0;entryX=0;entryY=1;entryDx=0;entryDy=0;endArrow=none;endFill=0;" edge="1" parent="1" source="VFRHFJFRgfAjL8g4FC74-39" target="VFRHFJFRgfAjL8g4FC74-15">
          <mxGeometry relative="1" as="geometry" />
        </mxCell>
        <mxCell id="VFRHFJFRgfAjL8g4FC74-39" value="Alkatrész" style="rhombus;whiteSpace=wrap;html=1;" vertex="1" parent="1">
          <mxGeometry x="531" y="825" width="80" height="80" as="geometry" />
        </mxCell>
        <mxCell id="VFRHFJFRgfAjL8g4FC74-40" value="" style="endArrow=none;dashed=1;html=1;rounded=0;entryX=0.941;entryY=0.559;entryDx=0;entryDy=0;entryPerimeter=0;exitX=0.083;exitY=0.569;exitDx=0;exitDy=0;exitPerimeter=0;" edge="1" parent="1" source="VFRHFJFRgfAjL8g4FC74-39" target="VFRHFJFRgfAjL8g4FC74-39">
          <mxGeometry width="50" height="50" relative="1" as="geometry">
            <mxPoint x="773" y="870" as="sourcePoint" />
            <mxPoint x="853" y="835" as="targetPoint" />
          </mxGeometry>
        </mxCell>
        <mxCell id="VFRHFJFRgfAjL8g4FC74-45" style="rounded=0;orthogonalLoop=1;jettySize=auto;html=1;exitX=0.5;exitY=0;exitDx=0;exitDy=0;entryX=1;entryY=1;entryDx=0;entryDy=0;endArrow=none;endFill=0;" edge="1" parent="1" source="VFRHFJFRgfAjL8g4FC74-41" target="VFRHFJFRgfAjL8g4FC74-15">
          <mxGeometry relative="1" as="geometry" />
        </mxCell>
        <mxCell id="VFRHFJFRgfAjL8g4FC74-46" style="edgeStyle=orthogonalEdgeStyle;rounded=0;orthogonalLoop=1;jettySize=auto;html=1;exitX=0.5;exitY=1;exitDx=0;exitDy=0;entryX=0;entryY=1;entryDx=0;entryDy=0;dashed=1;" edge="1" parent="1" source="VFRHFJFRgfAjL8g4FC74-41" target="0lsxmCBKLL6DGp91V7Py-32">
          <mxGeometry relative="1" as="geometry">
            <Array as="points">
              <mxPoint x="811" y="1115" />
              <mxPoint x="891" y="1115" />
            </Array>
          </mxGeometry>
        </mxCell>
        <mxCell id="VFRHFJFRgfAjL8g4FC74-41" value="Számítógép" style="rhombus;whiteSpace=wrap;html=1;" vertex="1" parent="1">
          <mxGeometry x="771" y="825" width="80" height="80" as="geometry" />
        </mxCell>
        <mxCell id="VFRHFJFRgfAjL8g4FC74-42" value="" style="endArrow=none;dashed=1;html=1;rounded=0;entryX=0.941;entryY=0.559;entryDx=0;entryDy=0;entryPerimeter=0;exitX=0.083;exitY=0.569;exitDx=0;exitDy=0;exitPerimeter=0;" edge="1" parent="1" source="VFRHFJFRgfAjL8g4FC74-41" target="VFRHFJFRgfAjL8g4FC74-41">
          <mxGeometry width="50" height="50" relative="1" as="geometry">
            <mxPoint x="1013" y="870" as="sourcePoint" />
            <mxPoint x="1093" y="835" as="targetPoint" />
          </mxGeometry>
        </mxCell>
        <mxCell id="VFRHFJFRgfAjL8g4FC74-50" style="rounded=0;orthogonalLoop=1;jettySize=auto;html=1;exitX=0.5;exitY=0;exitDx=0;exitDy=0;entryX=0;entryY=1;entryDx=0;entryDy=0;endArrow=none;endFill=0;" edge="1" parent="1" source="VFRHFJFRgfAjL8g4FC74-48" target="VFRHFJFRgfAjL8g4FC74-23">
          <mxGeometry relative="1" as="geometry" />
        </mxCell>
        <mxCell id="VFRHFJFRgfAjL8g4FC74-56" style="edgeStyle=orthogonalEdgeStyle;rounded=0;orthogonalLoop=1;jettySize=auto;html=1;exitX=0.5;exitY=1;exitDx=0;exitDy=0;entryX=1;entryY=1;entryDx=0;entryDy=0;dashed=1;" edge="1" parent="1" source="VFRHFJFRgfAjL8g4FC74-48" target="0lsxmCBKLL6DGp91V7Py-32">
          <mxGeometry relative="1" as="geometry">
            <Array as="points">
              <mxPoint x="1432" y="1115" />
              <mxPoint x="931" y="1115" />
            </Array>
          </mxGeometry>
        </mxCell>
        <mxCell id="VFRHFJFRgfAjL8g4FC74-48" value="Számítógép" style="rhombus;whiteSpace=wrap;html=1;" vertex="1" parent="1">
          <mxGeometry x="1391.5" y="825" width="80" height="80" as="geometry" />
        </mxCell>
        <mxCell id="VFRHFJFRgfAjL8g4FC74-49" value="" style="endArrow=none;dashed=1;html=1;rounded=0;entryX=0.941;entryY=0.559;entryDx=0;entryDy=0;entryPerimeter=0;exitX=0.083;exitY=0.569;exitDx=0;exitDy=0;exitPerimeter=0;" edge="1" parent="1" source="VFRHFJFRgfAjL8g4FC74-48" target="VFRHFJFRgfAjL8g4FC74-48">
          <mxGeometry width="50" height="50" relative="1" as="geometry">
            <mxPoint x="1633.5" y="870" as="sourcePoint" />
            <mxPoint x="1713.5" y="835" as="targetPoint" />
          </mxGeometry>
        </mxCell>
        <mxCell id="VFRHFJFRgfAjL8g4FC74-53" style="rounded=0;orthogonalLoop=1;jettySize=auto;html=1;exitX=0.5;exitY=0;exitDx=0;exitDy=0;entryX=1;entryY=1;entryDx=0;entryDy=0;endArrow=none;endFill=0;" edge="1" parent="1" source="VFRHFJFRgfAjL8g4FC74-51" target="VFRHFJFRgfAjL8g4FC74-23">
          <mxGeometry relative="1" as="geometry" />
        </mxCell>
        <mxCell id="VFRHFJFRgfAjL8g4FC74-57" style="edgeStyle=orthogonalEdgeStyle;rounded=0;orthogonalLoop=1;jettySize=auto;html=1;exitX=0.5;exitY=1;exitDx=0;exitDy=0;entryX=0;entryY=1;entryDx=0;entryDy=0;dashed=1;" edge="1" parent="1" source="VFRHFJFRgfAjL8g4FC74-51" target="0lsxmCBKLL6DGp91V7Py-64">
          <mxGeometry relative="1" as="geometry">
            <Array as="points">
              <mxPoint x="1671" y="1115" />
              <mxPoint x="1751" y="1115" />
            </Array>
          </mxGeometry>
        </mxCell>
        <mxCell id="VFRHFJFRgfAjL8g4FC74-51" value="Fiók" style="rhombus;whiteSpace=wrap;html=1;" vertex="1" parent="1">
          <mxGeometry x="1631" y="825" width="80" height="80" as="geometry" />
        </mxCell>
        <mxCell id="VFRHFJFRgfAjL8g4FC74-52" value="" style="endArrow=none;dashed=1;html=1;rounded=0;entryX=0.941;entryY=0.559;entryDx=0;entryDy=0;entryPerimeter=0;exitX=0.083;exitY=0.569;exitDx=0;exitDy=0;exitPerimeter=0;" edge="1" parent="1" source="VFRHFJFRgfAjL8g4FC74-51" target="VFRHFJFRgfAjL8g4FC74-51">
          <mxGeometry width="50" height="50" relative="1" as="geometry">
            <mxPoint x="1873" y="870" as="sourcePoint" />
            <mxPoint x="1953" y="835" as="targetPoint" />
          </mxGeometry>
        </mxCell>
        <mxCell id="VFRHFJFRgfAjL8g4FC74-61" style="rounded=0;orthogonalLoop=1;jettySize=auto;html=1;exitX=0.5;exitY=0;exitDx=0;exitDy=0;entryX=0;entryY=1;entryDx=0;entryDy=0;endArrow=none;endFill=0;" edge="1" parent="1" source="VFRHFJFRgfAjL8g4FC74-59" target="VFRHFJFRgfAjL8g4FC74-31">
          <mxGeometry relative="1" as="geometry" />
        </mxCell>
        <mxCell id="VFRHFJFRgfAjL8g4FC74-62" style="edgeStyle=orthogonalEdgeStyle;rounded=0;orthogonalLoop=1;jettySize=auto;html=1;exitX=0.5;exitY=1;exitDx=0;exitDy=0;entryX=0.5;entryY=1;entryDx=0;entryDy=0;dashed=1;" edge="1" parent="1" source="VFRHFJFRgfAjL8g4FC74-59" target="0lsxmCBKLL6DGp91V7Py-64">
          <mxGeometry relative="1" as="geometry">
            <Array as="points">
              <mxPoint x="2931" y="1155" />
              <mxPoint x="1771" y="1155" />
            </Array>
          </mxGeometry>
        </mxCell>
        <mxCell id="VFRHFJFRgfAjL8g4FC74-59" value="Fiók" style="rhombus;whiteSpace=wrap;html=1;" vertex="1" parent="1">
          <mxGeometry x="2891" y="824.5" width="80" height="80" as="geometry" />
        </mxCell>
        <mxCell id="VFRHFJFRgfAjL8g4FC74-60" value="" style="endArrow=none;dashed=1;html=1;rounded=0;entryX=0.941;entryY=0.559;entryDx=0;entryDy=0;entryPerimeter=0;exitX=0.083;exitY=0.569;exitDx=0;exitDy=0;exitPerimeter=0;" edge="1" parent="1" source="VFRHFJFRgfAjL8g4FC74-59" target="VFRHFJFRgfAjL8g4FC74-59">
          <mxGeometry width="50" height="50" relative="1" as="geometry">
            <mxPoint x="3133" y="869.5" as="sourcePoint" />
            <mxPoint x="3213" y="834.5" as="targetPoint" />
          </mxGeometry>
        </mxCell>
        <mxCell id="VFRHFJFRgfAjL8g4FC74-65" style="rounded=0;orthogonalLoop=1;jettySize=auto;html=1;exitX=0.5;exitY=0;exitDx=0;exitDy=0;entryX=1;entryY=1;entryDx=0;entryDy=0;endArrow=none;endFill=0;" edge="1" parent="1" source="VFRHFJFRgfAjL8g4FC74-63" target="VFRHFJFRgfAjL8g4FC74-31">
          <mxGeometry relative="1" as="geometry" />
        </mxCell>
        <mxCell id="VFRHFJFRgfAjL8g4FC74-67" style="edgeStyle=orthogonalEdgeStyle;rounded=0;orthogonalLoop=1;jettySize=auto;html=1;exitX=0.5;exitY=1;exitDx=0;exitDy=0;entryX=0.5;entryY=1;entryDx=0;entryDy=0;dashed=1;" edge="1" parent="1" source="VFRHFJFRgfAjL8g4FC74-63" target="0lsxmCBKLL6DGp91V7Py-48">
          <mxGeometry relative="1" as="geometry">
            <Array as="points">
              <mxPoint x="3171" y="1115" />
              <mxPoint x="3271" y="1115" />
            </Array>
          </mxGeometry>
        </mxCell>
        <mxCell id="VFRHFJFRgfAjL8g4FC74-63" value="Bankkártya" style="rhombus;whiteSpace=wrap;html=1;" vertex="1" parent="1">
          <mxGeometry x="3131" y="825" width="80" height="80" as="geometry" />
        </mxCell>
        <mxCell id="VFRHFJFRgfAjL8g4FC74-64" value="" style="endArrow=none;dashed=1;html=1;rounded=0;entryX=0.941;entryY=0.559;entryDx=0;entryDy=0;entryPerimeter=0;exitX=0.083;exitY=0.569;exitDx=0;exitDy=0;exitPerimeter=0;" edge="1" parent="1" source="VFRHFJFRgfAjL8g4FC74-63" target="VFRHFJFRgfAjL8g4FC74-63">
          <mxGeometry width="50" height="50" relative="1" as="geometry">
            <mxPoint x="3373" y="870" as="sourcePoint" />
            <mxPoint x="3453" y="835" as="targetPoint" />
          </mxGeometry>
        </mxCell>
        <mxCell id="VFRHFJFRgfAjL8g4FC74-69" style="rounded=0;orthogonalLoop=1;jettySize=auto;html=1;exitX=0.5;exitY=1;exitDx=0;exitDy=0;entryX=0.5;entryY=0;entryDx=0;entryDy=0;endArrow=none;endFill=0;" edge="1" parent="1" source="VFRHFJFRgfAjL8g4FC74-68" target="0lsxmCBKLL6DGp91V7Py-68">
          <mxGeometry relative="1" as="geometry" />
        </mxCell>
        <mxCell id="VFRHFJFRgfAjL8g4FC74-71" style="rounded=0;orthogonalLoop=1;jettySize=auto;html=1;exitX=0;exitY=1;exitDx=0;exitDy=0;entryX=0.5;entryY=0;entryDx=0;entryDy=0;endArrow=none;endFill=0;" edge="1" parent="1" source="VFRHFJFRgfAjL8g4FC74-68" target="0lsxmCBKLL6DGp91V7Py-36">
          <mxGeometry relative="1" as="geometry" />
        </mxCell>
        <mxCell id="VFRHFJFRgfAjL8g4FC74-68" value="Számítógépbolt" style="ellipse;whiteSpace=wrap;html=1;" vertex="1" parent="1">
          <mxGeometry x="1711" y="330" width="120" height="60" as="geometry" />
        </mxCell>
      </root>
    </mxGraphModel>
  </diagram>
</mxfile>
